<?xml version="1.0" encoding="UTF-8" standalone="no"?>
<svg
   xmlns:dc="http://purl.org/dc/elements/1.1/"
   xmlns:cc="http://creativecommons.org/ns#"
   xmlns:rdf="http://www.w3.org/1999/02/22-rdf-syntax-ns#"
   xmlns:svg="http://www.w3.org/2000/svg"
   xmlns="http://www.w3.org/2000/svg"
   xmlns:sodipodi="http://sodipodi.sourceforge.net/DTD/sodipodi-0.dtd"
   xmlns:inkscape="http://www.inkscape.org/namespaces/inkscape"
   width="165.78464mm"
   height="165.78464mm"
   viewBox="0 0 165.78464 165.78464"
   version="1.1"
   id="svg8"
   inkscape:version="1.0.1 (3bc2e813f5, 2020-09-07)"
   sodipodi:docname="logo.svg">
  <defs
     id="defs2" />
  <sodipodi:namedview
     id="base"
     pagecolor="#ffffff"
     bordercolor="#666666"
     borderopacity="1.0"
     inkscape:pageopacity="0.0"
     inkscape:pageshadow="2"
     inkscape:zoom="0.9563371"
     inkscape:cx="322.78325"
     inkscape:cy="356.23323"
     inkscape:document-units="mm"
     inkscape:current-layer="layer4"
     inkscape:document-rotation="0"
     showgrid="false"
     inkscape:window-width="1920"
     inkscape:window-height="1017"
     inkscape:window-x="1272"
     inkscape:window-y="-8"
     inkscape:window-maximized="1" />
  <metadata
     id="metadata5">
    <rdf:RDF>
      <cc:Work
         rdf:about="">
        <dc:format>image/svg+xml</dc:format>
        <dc:type
           rdf:resource="http://purl.org/dc/dcmitype/StillImage" />
        <dc:title></dc:title>
      </cc:Work>
    </rdf:RDF>
  </metadata>
  <g
     inkscape:groupmode="layer"
     id="layer4"
     inkscape:label="background"
     style="display:inline"
     transform="translate(-21.133064,-81.998993)">
    <circle
       style="fill:#19c0ff;fill-opacity:1;stroke:#000000;stroke-width:2;stroke-opacity:0"
       id="path842"
       cx="104.02538"
       cy="164.89131"
       r="81.892319" />
  </g>
  <g
     inkscape:groupmode="layer"
     id="g961"
     inkscape:label="yellow B"
     style="display:inline;mix-blend-mode:normal"
     transform="translate(-21.133064,-81.998993)">
    <path
       id="path959"
       style="font-variation-settings:normal;opacity:1;vector-effect:none;fill:#fcb401;fill-opacity:1;stroke:#000000;stroke-width:1.50531;stroke-linecap:butt;stroke-linejoin:miter;stroke-miterlimit:4;stroke-dasharray:none;stroke-dashoffset:0;stroke-opacity:0;stop-color:#000000;stop-opacity:1"
       d="m 115.31733,108.08576 c -7.87734,0.15333 -15.811867,1.70753 -22.930265,5.15517 -5.025858,2.45881 -9.689389,6.0343 -12.563517,10.91221 -0.01577,0.71958 0.32879,1.42103 0.451834,2.13371 5.251277,20.90941 10.502284,41.81889 15.753733,62.72826 9.002175,2.51561 18.635545,3.07391 27.779915,0.96999 10.03433,-2.2642 19.47299,-7.68193 25.98042,-15.71729 3.45847,-4.32379 6.13678,-9.49263 6.64707,-15.07374 0.39419,-4.06558 -0.68798,-8.35426 -3.39497,-11.47466 -2.95939,-3.49828 -7.38153,-5.38248 -11.79115,-6.25332 -1.15411,-0.23092 -2.3191,-0.40236 -3.49018,-0.51937 3.04513,-3.64642 5.79057,-7.74935 6.8705,-12.43946 0.79808,-3.38476 0.36028,-7.10922 -1.53373,-10.06533 -2.31144,-3.67885 -6.18615,-6.05195 -10.16381,-7.57786 -5.60007,-2.13048 -11.65308,-2.84449 -17.61585,-2.77831 z m -1.69641,20.63329 c 1.16737,0.024 2.24085,0.83984 2.52183,1.98322 0.58253,2.13603 -0.0458,4.40753 -0.98124,6.34888 -0.861,1.69123 -2.10502,3.30638 -3.87058,4.11167 -0.86045,-3.70054 -1.72091,-7.40109 -2.58137,-11.10164 1.53852,-0.7409 3.14683,-1.4061 4.91136,-1.34213 z m 5.81983,28.1069 c 1.16711,0.0229 2.23534,0.83856 2.5228,1.97748 0.58693,2.15945 -0.0551,4.45579 -1.01172,6.41223 -0.85969,1.66798 -2.09542,3.25907 -3.84107,4.05406 -0.86045,-3.70054 -1.72091,-7.40109 -2.58136,-11.10164 1.53841,-0.73966 3.14728,-1.40837 4.91135,-1.34213 z" />
  </g>
  <g
     inkscape:groupmode="layer"
     id="layer1"
     inkscape:label="pink B"
     transform="translate(-21.133064,-81.998993)">
    <path
       id="path959-4"
       style="font-variation-settings:normal;display:inline;opacity:1;mix-blend-mode:normal;vector-effect:none;fill:#fb2b60;fill-opacity:1;stroke:#000000;stroke-width:1.50531;stroke-linecap:butt;stroke-linejoin:miter;stroke-miterlimit:4;stroke-dasharray:none;stroke-dashoffset:0;stroke-opacity:0;stop-color:#000000;stop-opacity:1"
       d="m 84.994684,134.88478 c -7.877342,0.15333 -15.811869,1.70753 -22.930267,5.15517 -5.025858,2.45881 -9.689389,6.0343 -12.563517,10.91221 -0.01577,0.71958 0.32879,1.42103 0.451834,2.13371 5.251277,20.90941 10.502285,41.81889 15.753733,62.72826 9.002176,2.51561 18.635545,3.07391 27.779916,0.96999 10.034337,-2.2642 19.472997,-7.68193 25.980427,-15.71729 3.45847,-4.32379 6.13678,-9.49263 6.64707,-15.07374 0.39419,-4.06558 -0.68798,-8.35426 -3.39497,-11.47466 -2.95939,-3.49828 -7.38153,-5.38248 -11.79115,-6.25332 -1.15411,-0.23092 -2.3191,-0.40236 -3.49018,-0.51937 3.04513,-3.64642 5.79057,-7.74935 6.8705,-12.43946 0.79808,-3.38476 0.36028,-7.10922 -1.53373,-10.06533 -2.31144,-3.67885 -6.18615,-6.05195 -10.16381,-7.57786 -5.600077,-2.13048 -11.653087,-2.84449 -17.615856,-2.77831 z m -1.696411,20.63329 c 1.167368,0.024 2.240849,0.83984 2.521829,1.98322 0.58253,2.13603 -0.0458,4.40753 -0.981239,6.34888 -0.860999,1.69123 -2.10502,3.30638 -3.870579,4.11167 -0.860452,-3.70054 -1.720911,-7.40109 -2.581371,-11.10164 1.538521,-0.7409 3.14683,-1.4061 4.91136,-1.34213 z m 5.819831,28.1069 c 1.167109,0.0229 2.235337,0.83856 2.522799,1.97748 0.586931,2.15945 -0.0551,4.45579 -1.011721,6.41223 -0.85969,1.66798 -2.095418,3.25907 -3.84107,4.05406 -0.860449,-3.70054 -1.720909,-7.40109 -2.58136,-11.10164 1.538412,-0.73966 3.14728,-1.40837 4.911352,-1.34213 z" />
  </g>
  <g
     inkscape:groupmode="layer"
     id="layer2"
     inkscape:label="old B"
     style="display:none;mix-blend-mode:normal"
     transform="translate(-21.133064,-81.998993)">
    <path
       id="path872"
       style="font-variation-settings:normal;opacity:1;vector-effect:none;fill:#fb2b60;fill-opacity:1;stroke:none;stroke-width:2;stroke-linecap:butt;stroke-linejoin:miter;stroke-miterlimit:4;stroke-dasharray:none;stroke-dashoffset:0;stroke-opacity:1;stop-color:#000000;stop-opacity:1"
       d="m 87.594369,115.4779 c -10.466104,0.20372 -21.008169,2.26868 -30.465907,6.84932 -6.677512,3.26685 -12.873635,8.01737 -16.692297,14.49833 -0.02095,0.95605 0.436842,1.88803 0.600322,2.83492 6.977021,27.78092 13.953683,55.56194 20.930928,83.34282 11.960581,3.34232 24.759794,4.0841 36.909304,1.28875 13.331931,-3.00829 25.872451,-10.20646 34.518431,-20.8825 4.59504,-5.74473 8.15353,-12.61222 8.83152,-20.02747 0.52373,-5.40166 -0.91408,-11.09974 -4.51067,-15.24561 -3.93194,-4.64793 -9.80734,-7.15133 -15.66611,-8.30836 -1.53339,-0.30681 -3.08123,-0.53459 -4.63716,-0.69005 4.04585,-4.84475 7.69353,-10.29604 9.12837,-16.52748 1.06035,-4.4971 0.47868,-9.44555 -2.03777,-13.37313 -3.07106,-4.88784 -8.21912,-8.04081 -13.50397,-10.0682 -7.44043,-2.83062 -15.482671,-3.77928 -23.404991,-3.69134 z m -2.253908,27.41406 c 1.550998,0.0319 2.977258,1.11584 3.350578,2.63497 0.77397,2.838 -0.0608,5.85599 -1.3037,8.43534 -1.14396,2.24702 -2.796806,4.39296 -5.142581,5.46289 -1.143229,-4.91666 -2.286458,-9.83333 -3.429687,-14.75 2.044118,-0.98438 4.180976,-1.86819 6.52539,-1.7832 z m 7.732418,37.34375 c 1.55065,0.0304 2.96994,1.11414 3.35187,2.62735 0.77981,2.86912 -0.0732,5.9201 -1.34421,8.51949 -1.14221,2.21614 -2.78404,4.33011 -5.10336,5.38636 -1.14323,-4.91666 -2.28646,-9.83333 -3.42969,-14.75 2.04399,-0.98273 4.18158,-1.8712 6.52539,-1.7832 z" />
  </g>
</svg>
